<svg id="Layer_1" data-name="Layer 1" xmlns="http://www.w3.org/2000/svg" viewBox="0 0 591.49 154"><defs><style>.cls-1{fill:#fff;}</style></defs><title>JUNCTIONx_logos</title><path class="cls-1" d="M270.48,95.33a7.33,7.33,0,0,1-7.33,7.33H233.67a7.33,7.33,0,0,1-7.33-7.33V58.67a7.33,7.33,0,0,1,7.33-7.33h29.47a7.33,7.33,0,0,1,7.33,7.33v7.25h-8.36V58.72H234.89V95.47h27.22V88.08h8.36Z"/><path class="cls-1" d="M354.28,102.67h-8.36V51.33h8.36Z"/><path class="cls-1" d="M409.75,102.67H380.48a7.33,7.33,0,0,1-7.33-7.33V58.67a7.33,7.33,0,0,1,7.33-7.33h29.28a7.33,7.33,0,0,1,7.33,7.33V95.33A7.33,7.33,0,0,1,409.75,102.67Zm-1-7.19V58.72H381.51V95.47Z"/><path class="cls-1" d="M72.14,51.33V95.47H52.31V88.08H43.95v7.29a7.49,7.49,0,0,0,7.31,7.29H73.19A6.83,6.83,0,0,0,78.41,100a7.3,7.3,0,0,0,2.09-4.71v-44Z"/><path class="cls-1" d="M135.72,51.33V95.28H108.5V51.33h-8.36v44a7.33,7.33,0,0,0,7.32,7.33h36.62V51.33Z"/><polygon class="cls-1" points="327.44 51.33 288.76 51.33 287.78 51.33 287.78 58.72 288.76 58.72 288.76 58.72 303.92 58.72 303.92 102.67 312.28 102.67 312.28 58.72 327.44 58.72 327.44 58.72 328.42 58.72 328.42 51.33 327.44 51.33"/><polygon class="cls-1" points="199.11 51.33 199.11 89.45 199.11 94.7 198.07 94.7 178.29 51.14 171.9 51.14 163.53 51.14 163.53 70.94 163.53 102.67 171.89 102.67 171.89 70.94 171.89 64.36 171.89 59.11 172.94 59.11 192.79 102.67 199.11 102.67 207.47 102.67 207.47 51.33 199.11 51.33"/><polygon class="cls-1" points="471.73 51.33 471.73 89.45 471.73 94.7 470.68 94.7 450.9 51.14 444.52 51.14 436.14 51.14 436.14 70.94 436.14 102.67 444.51 102.67 444.51 70.94 444.51 64.36 444.51 59.11 445.55 59.11 465.4 102.67 471.73 102.67 480.09 102.67 480.09 51.33 471.73 51.33"/><path class="cls-1" d="M547.55,61.08,537.43,51l-15.7,15.7L506,51,495.91,61.08l15.7,15.7-15.7,15.7L506,102.6l15.7-15.7,6.1-6.1,2.1-2.1,13.63,13.63-2.1,2.1L527.83,80.79l-2.09,2.09,13.63,13.63-2.1,2.1L523.64,85l-1.91,1.91,15.7,15.7,10.12-10.12-15.7-15.7Zm-41.36-6.14,13.63,13.63-2.1,2.1L504.08,57Zm-6.29,6.29,2.1-2.1,13.63,13.63-2.1,2.1Zm0,31.09,37.38-37.38,2.1,2.1L502,94.42Zm6.29,6.29-2.1-2.1,37.38-37.38,2.1,2.1Z"/></svg>